<?xml version="1.0" standalone="no"?><!DOCTYPE svg PUBLIC "-//W3C//DTD SVG 1.1//EN" "http://www.w3.org/Graphics/SVG/1.1/DTD/svg11.dtd"><svg height="64" node-id="1" sillyvg="true" template-height="64" template-width="64" version="1.1" viewBox="0 0 64 64" width="64" xmlns="http://www.w3.org/2000/svg" xmlns:xlink="http://www.w3.org/1999/xlink"><defs node-id="59"></defs><g node-id="191"><path d="M 54.20 55.40 L 53.20 56.20 L 47.90 57.10 L 32.00 57.90 L 16.10 57.10 L 12.80 56.70 L 10.00 55.70 L 9.80 55.40 L 10.00 55.10 L 10.80 54.60 L 16.10 53.70 L 32.00 52.90 L 47.90 53.70 L 53.20 54.60 L 54.20 55.40 Z" fill="#c9c9c9" fill-rule="nonzero" group-id="1" node-id="65" stroke="none" target-height="5" target-width="44.4" target-x="9.8" target-y="52.9"></path><path d="M 54.00 32.70 L 53.80 35.70 L 52.30 41.30 L 51.00 43.80 L 48.80 46.90 L 46.20 49.50 L 43.10 51.70 L 40.60 53.00 L 35.00 54.50 L 32.00 54.70 L 29.00 54.50 L 23.40 53.00 L 20.90 51.70 L 17.80 49.50 L 15.20 46.90 L 13.00 43.80 L 10.80 38.60 L 10.20 35.70 L 10.00 32.70 L 10.80 26.80 L 13.00 21.60 L 15.20 18.50 L 17.80 15.90 L 20.90 13.70 L 23.40 12.40 L 29.00 10.90 L 32.00 10.70 L 35.00 10.90 L 40.60 12.40 L 43.10 13.70 L 46.20 15.90 L 48.80 18.50 L 51.00 21.60 L 52.30 24.10 L 53.80 29.70 L 54.00 32.70 Z" fill="#d10d0d" fill-rule="nonzero" group-id="1" node-id="67" stroke="none" target-height="44" target-width="44" target-x="10" target-y="10.7"></path><path d="M 32.00 10.70 L 35.10 10.90 L 40.60 12.40 L 43.10 13.70 L 46.20 15.90 L 48.80 18.50 L 51.00 21.60 L 52.30 24.10 L 53.80 29.60 L 54.00 32.70 L 53.80 35.70 L 52.30 41.20 L 51.00 43.80 L 48.80 46.90 L 46.20 49.50 L 43.10 51.70 L 40.60 53.00 L 35.10 54.50 L 32.00 54.70" fill="#af1e1e" fill-rule="nonzero" group-id="1" node-id="69" stroke="none" target-height="44" target-width="22" target-x="32" target-y="10.7"></path><g node-id="196"><path d="M 62.70 27.30 L 62.10 32.40 L 61.20 35.90 L 59.70 39.90 L 56.60 45.20 L 54.50 47.80 L 52.00 50.10 L 49.10 52.20 L 45.60 54.00 L 39.70 55.80 L 36.10 56.30 L 32.00 56.50 L 24.30 55.80 L 18.40 54.00 L 14.90 52.20 L 12.00 50.10 L 9.50 47.80 L 7.40 45.20 L 4.30 39.90 L 2.80 35.90 L 1.90 32.40 L 1.30 27.30 L 1.60 26.20 L 2.30 25.40 L 3.70 24.90 L 6.30 24.60 L 25.70 26.20 L 32.00 26.40 L 38.30 26.20 L 57.70 24.60 L 60.30 24.90 L 61.70 25.40 L 62.40 26.20 L 62.70 27.30 Z" fill="#f49e2c" fill-rule="nonzero" group-id="1,6" node-id="73" stroke="none" target-height="31.9" target-width="61.4" target-x="1.3" target-y="24.6"></path><g node-id="197"><path d="M 3.10 27.30 L 3.20 26.50 L 4.30 25.40 L 7.50 24.70 L 4.70 24.80 L 1.90 25.60 L 1.40 26.30 L 1.20 27.30 L 1.30 29.20 L 2.80 35.90 L 4.30 39.90 L 7.40 45.20 L 9.50 47.80 L 12.00 50.10 L 14.90 52.20 L 18.40 54.00 L 24.30 55.80 L 27.90 56.30 L 32.90 56.50 L 27.70 56.00 L 23.40 55.10 L 19.80 53.70 L 16.40 51.90 L 13.50 49.80 L 11.10 47.50 L 9.10 44.90 L 6.10 39.70 L 4.60 35.70 L 3.70 32.30 L 3.10 27.30 Z" fill="#f9b66b" fill-rule="nonzero" group-id="1,6,7" node-id="77" stroke="none" target-height="31.8" target-width="31.7" target-x="1.2" target-y="24.7"></path></g><path d="M 32.00 41.40 L 36.30 41.20 L 44.00 40.00 L 50.90 37.70 L 56.50 34.80 L 60.30 31.80 L 61.70 30.10 L 62.50 28.60 L 62.70 27.30 L 62.40 26.20 L 61.70 25.40 L 60.30 24.90 L 57.70 24.60 L 38.30 26.20 L 32.00 26.40 L 25.70 26.20 L 6.30 24.70 L 3.70 24.90 L 2.30 25.40 L 1.60 26.20 L 1.30 27.30 L 1.50 28.60 L 2.30 30.00 L 5.40 33.20 L 10.30 36.30 L 16.40 38.90 L 20.00 39.90 L 27.70 41.20 L 32.00 41.40 Z" fill="#e58720" fill-rule="nonzero" group-id="1,6" node-id="80" stroke="none" target-height="16.800001" target-width="61.4" target-x="1.3" target-y="24.6"></path><path d="M 62.70 27.30 L 62.40 28.60 L 61.70 29.90 L 60.30 31.30 L 56.50 33.70 L 53.70 34.80 L 49.30 36.20 L 43.90 37.30 L 38.30 38.00 L 32.00 38.30 L 25.70 38.00 L 20.00 37.30 L 14.70 36.20 L 10.30 34.80 L 7.50 33.70 L 3.70 31.30 L 2.30 29.90 L 1.60 28.60 L 1.30 27.30 L 1.60 26.20 L 2.30 25.40 L 3.70 24.90 L 6.30 24.60 L 25.70 26.20 L 32.00 26.40 L 38.30 26.20 L 57.70 24.60 L 60.30 24.90 L 61.70 25.40 L 62.40 26.20 L 62.70 27.30 Z" fill="#f7da2f" fill-rule="nonzero" group-id="1,6" node-id="82" stroke="none" target-height="13.699999" target-width="61.4" target-x="1.3" target-y="24.6"></path><path d="M 62.70 27.30 L 62.40 28.60 L 61.70 29.90 L 60.30 31.30 L 56.50 33.70 L 53.70 34.80 L 49.30 36.20 L 43.90 37.30 L 38.30 38.00 L 32.00 38.30 L 25.70 38.00 L 20.00 37.30 L 14.70 36.20 L 10.30 34.80 L 7.50 33.70 L 3.70 31.30 L 2.30 29.90 L 1.60 28.60 L 1.30 27.30 L 1.60 26.20 L 2.20 25.50 L 3.40 25.10 L 5.80 25.20 L 24.00 27.80 L 30.30 28.10 L 36.60 27.80 L 57.20 25.20 L 60.00 25.10 L 61.60 25.50 L 62.40 26.20 L 62.70 27.30 Z" fill="#ffc50b" fill-rule="nonzero" group-id="1,6" node-id="84" stroke="none" target-height="13.199999" target-width="61.4" target-x="1.3" target-y="25.1"></path><path d="M 18.90 30.60 L 32.00 38.30 L 38.30 38.00 L 44.00 37.30 L 49.30 36.20 L 53.70 34.80 L 58.60 32.50 L 61.70 29.90 L 62.40 28.60 L 62.70 27.30 L 62.40 26.20 L 61.70 25.40 L 60.30 24.90 L 57.70 24.60 L 53.70 24.80 L 38.30 26.20 L 32.00 26.40 L 18.90 30.60" fill="#ffb40d" fill-rule="nonzero" group-id="1,6" node-id="86" stroke="none" target-height="13.699999" target-width="43.800003" target-x="18.9" target-y="24.6"></path><path d="M 62.70 27.30 L 62.40 26.20 L 61.70 25.40 L 60.30 24.90 L 57.70 24.60 L 38.30 26.20 L 32.00 26.40 L 18.90 30.70" fill="#efa30a" fill-rule="nonzero" group-id="1,6" node-id="88" stroke="none" target-height="6.1000004" target-width="43.800003" target-x="18.9" target-y="24.6"></path><g node-id="198"><path d="M 25.60 41.50 L 25.40 42.10 L 24.80 42.30 L 24.20 42.10 L 24.00 41.50 L 24.20 40.90 L 24.80 40.70 L 25.40 40.90 L 25.60 41.50 Z" fill="#ffc50b" fill-rule="nonzero" group-id="1,6,8" node-id="92" stroke="none" target-height="1.5999985" target-width="1.6000004" target-x="24" target-y="40.7"></path><path d="M 30.40 41.50 L 30.20 42.10 L 29.60 42.30 L 29.00 42.10 L 28.80 41.50 L 29.00 40.90 L 29.60 40.70 L 30.20 40.90 L 30.40 41.50 Z" fill="#ffc50b" fill-rule="nonzero" group-id="1,6,8" node-id="94" stroke="none" target-height="1.5999985" target-width="1.6000004" target-x="28.8" target-y="40.7"></path><path d="M 35.20 41.50 L 35.00 42.10 L 34.40 42.30 L 33.80 42.10 L 33.60 41.50 L 33.80 40.90 L 34.40 40.70 L 35.00 40.90 L 35.20 41.50 Z" fill="#ffc50b" fill-rule="nonzero" group-id="1,6,8" node-id="96" stroke="none" target-height="1.5999985" target-width="1.6000023" target-x="33.6" target-y="40.7"></path><path d="M 40.00 41.50 L 39.80 42.10 L 39.20 42.30 L 38.60 42.10 L 38.40 41.50 L 38.60 40.90 L 39.20 40.70 L 39.80 40.90 L 40.00 41.50 Z" fill="#ffc50b" fill-rule="nonzero" group-id="1,6,8" node-id="98" stroke="none" target-height="1.5999985" target-width="1.5999985" target-x="38.4" target-y="40.7"></path></g><path d="M 45.80 28.90 L 45.00 30.70 L 41.90 32.50 L 35.70 33.90 L 32.00 34.10 L 28.30 33.90 L 22.10 32.50 L 19.00 30.70 L 18.20 28.90 L 19.00 26.80 L 22.20 23.40 L 25.00 21.70 L 27.20 20.80 L 32.00 20.00 L 36.80 20.80 L 39.00 21.70 L 41.80 23.50 L 45.00 26.80 L 45.80 28.90 Z" fill="#ffb40d" fill-rule="nonzero" group-id="1,6" node-id="101" stroke="none" target-height="14.099998" target-width="27.599998" target-x="18.2" target-y="20"></path><path d="M 32.00 34.10 L 28.30 33.90 L 22.10 32.50 L 19.00 30.70 L 18.20 28.90 L 19.00 26.80 L 22.20 23.40 L 25.00 21.70 L 27.20 20.80 L 32.00 20.00" fill="#ffc50b" fill-rule="nonzero" group-id="1,6" node-id="103" stroke="none" target-height="14.099998" target-width="13.799999" target-x="18.2" target-y="20"></path><g node-id="199"><path d="M 31.10 21.30 L 30.30 22.30 L 27.90 23.40 L 24.40 24.00 L 24.10 23.70 L 24.20 23.30 L 24.90 22.70 L 27.30 21.50 L 29.80 21.00 L 31.10 21.30 Z" fill="#f7da2f" fill-rule="nonzero" group-id="1,6,9" node-id="107" stroke="none" target-height="3" target-width="7" target-x="24.1" target-y="21"></path></g><path d="M 23.40 24.80 L 23.30 25.20 L 22.50 25.20 L 22.50 24.40 L 22.90 24.30 L 23.40 24.80 Z" fill="#f7da2f" fill-rule="nonzero" group-id="1,6" node-id="110" stroke="none" target-height="0.9000015" target-width="0.8999996" target-x="22.5" target-y="24.3"></path><path d="M 21.60 26.00 L 21.30 26.30 L 21.00 26.00 L 21.30 25.70 L 21.60 26.00 Z" fill="#f7da2f" fill-rule="nonzero" group-id="1,6" node-id="112" stroke="none" target-height="0.5999985" target-width="0.6000004" target-x="21" target-y="25.7"></path><g node-id="200"><path d="M 7.70 26.50 L 6.90 26.90 L 5.10 26.90 L 3.40 26.60 L 2.70 26.10 L 3.50 25.70 L 5.20 25.70 L 7.00 26.00 L 7.70 26.50 Z" fill="#f7da2f" fill-rule="nonzero" group-id="1,6,10" node-id="116" stroke="none" target-height="1.1999989" target-width="5" target-x="2.7" target-y="25.7"></path></g><g node-id="201"><g node-id="202"><path d="M 33.00 52.50 L 32.70 53.10 L 32.00 53.40 L 31.30 53.10 L 31.00 52.50 L 31.00 45.30 L 31.30 44.70 L 32.00 44.40 L 32.70 44.70 L 33.00 45.30 L 33.00 52.50 Z" fill="#5e0404" fill-rule="nonzero" group-id="1,6,11,12" node-id="123" stroke="none" target-height="9" target-width="2" target-x="31" target-y="44.4"></path><path d="M 28.40 50.00 L 27.80 49.70 L 27.50 49.00 L 27.80 48.30 L 28.40 48.00 L 35.60 48.00 L 36.20 48.30 L 36.50 49.00 L 36.20 49.70 L 35.60 50.00 L 28.40 50.00 Z" fill="#5e0404" fill-rule="nonzero" group-id="1,6,11,12" node-id="125" stroke="none" target-height="2" target-width="9" target-x="27.5" target-y="48"></path></g><g node-id="203"><g node-id="204"><path d="M 29.40 45.30 L 29.10 45.90 L 28.50 46.20 L 27.90 45.90 L 27.60 45.30 L 27.90 44.70 L 28.50 44.40 L 29.10 44.70 L 29.40 45.30 Z" fill="#5e0404" fill-rule="nonzero" group-id="1,6,11,13,14" node-id="132" stroke="none" target-height="1.7999992" target-width="1.7999992" target-x="27.6" target-y="44.4"></path><path d="M 36.40 45.30 L 36.10 45.90 L 35.50 46.20 L 34.90 45.90 L 34.60 45.30 L 34.90 44.70 L 35.50 44.40 L 36.10 44.70 L 36.40 45.30 Z" fill="#5e0404" fill-rule="nonzero" group-id="1,6,11,13,14" node-id="134" stroke="none" target-height="1.7999992" target-width="1.800003" target-x="34.6" target-y="44.4"></path></g><g node-id="205"><path d="M 29.40 52.50 L 29.10 53.10 L 28.50 53.40 L 27.90 53.10 L 27.60 52.50 L 27.90 51.90 L 28.50 51.60 L 29.10 51.90 L 29.40 52.50 Z" fill="#5e0404" fill-rule="nonzero" group-id="1,6,11,13,15" node-id="139" stroke="none" target-height="1.800003" target-width="1.7999992" target-x="27.6" target-y="51.6"></path><path d="M 36.40 52.50 L 36.10 53.10 L 35.50 53.40 L 34.90 53.10 L 34.60 52.50 L 34.90 51.90 L 35.50 51.60 L 36.10 51.90 L 36.40 52.50 Z" fill="#5e0404" fill-rule="nonzero" group-id="1,6,11,13,15" node-id="141" stroke="none" target-height="1.800003" target-width="1.800003" target-x="34.6" target-y="51.6"></path></g></g></g></g></g><g node-id="192"><path d="M 56.00 10.60 L 55.00 7.50 L 54.00 10.60 L 55.00 10.30 Z" fill="#ffc50b" fill-rule="nonzero" group-id="2" node-id="150" stroke="none" target-height="3.1000004" target-width="2" target-x="54" target-y="7.5"></path><path d="M 56.00 12.60 L 55.00 12.90 L 54.00 12.60 L 55.00 15.70 Z" fill="#ffc50b" fill-rule="nonzero" group-id="2" node-id="152" stroke="none" target-height="3.0999994" target-width="2" target-x="54" target-y="12.6"></path><path d="M 54.00 10.60 L 50.90 11.60 L 54.00 12.60 L 53.70 11.60 Z" fill="#ffc50b" fill-rule="nonzero" group-id="2" node-id="154" stroke="none" target-height="2" target-width="3.0999985" target-x="50.9" target-y="10.6"></path><path d="M 56.00 12.60 L 59.10 11.60 L 56.00 10.60 L 56.30 11.60 Z" fill="#ffc50b" fill-rule="nonzero" group-id="2" node-id="156" stroke="none" target-height="2" target-width="3.0999985" target-x="56" target-y="10.6"></path></g><g node-id="193"><path d="M 5.80 16.80 L 5.20 14.70 L 4.50 16.80 L 5.20 16.60 Z" fill="#ffc50b" fill-rule="nonzero" group-id="3" node-id="161" stroke="none" target-height="2.0999994" target-width="1.3000002" target-x="4.5" target-y="14.7"></path><path d="M 5.80 18.10 L 5.20 18.30 L 4.50 18.10 L 5.20 20.20 Z" fill="#ffc50b" fill-rule="nonzero" group-id="3" node-id="163" stroke="none" target-height="2.1000004" target-width="1.3000002" target-x="4.5" target-y="18.1"></path><path d="M 4.50 16.80 L 2.40 17.40 L 4.50 18.10 L 4.30 17.40 Z" fill="#ffc50b" fill-rule="nonzero" group-id="3" node-id="165" stroke="none" target-height="1.3000011" target-width="2.1" target-x="2.4" target-y="16.8"></path><path d="M 5.80 18.10 L 7.90 17.40 L 5.80 16.80 L 6.00 17.40 Z" fill="#ffc50b" fill-rule="nonzero" group-id="3" node-id="167" stroke="none" target-height="1.3000011" target-width="2.1" target-x="5.8" target-y="16.8"></path></g><g node-id="194"><path d="M 27.40 15.40 L 28.40 13.50 L 26.50 14.50 L 27.10 14.80 Z" fill="#ffc50b" fill-rule="nonzero" group-id="4" node-id="172" stroke="none" target-height="1.8999996" target-width="1.8999996" target-x="26.5" target-y="13.5"></path><path d="M 26.50 16.40 L 25.90 16.10 L 25.50 15.40 L 24.50 17.40 Z" fill="#ffc50b" fill-rule="nonzero" group-id="4" node-id="174" stroke="none" target-height="2" target-width="2" target-x="24.5" target-y="15.4"></path><path d="M 26.50 14.50 L 24.50 13.50 L 25.50 15.40 L 25.90 14.80 Z" fill="#ffc50b" fill-rule="nonzero" group-id="4" node-id="176" stroke="none" target-height="1.8999996" target-width="2" target-x="24.5" target-y="13.5"></path><path d="M 26.50 16.40 L 28.40 17.40 L 27.40 15.40 L 27.10 16.10 Z" fill="#ffc50b" fill-rule="nonzero" group-id="4" node-id="178" stroke="none" target-height="2" target-width="1.8999996" target-x="26.5" target-y="15.4"></path></g><g node-id="195"><path d="M 14.10 8.80 L 15.50 6.10 L 12.70 7.50 L 13.60 8.00 Z" fill="#ffc50b" fill-rule="nonzero" group-id="5" node-id="183" stroke="none" target-height="2.7000003" target-width="2.8000002" target-x="12.7" target-y="6.1"></path><path d="M 12.70 10.20 L 11.90 9.70 L 11.40 8.80 L 10.00 11.60 Z" fill="#ffc50b" fill-rule="nonzero" group-id="5" node-id="185" stroke="none" target-height="2.8000002" target-width="2.6999998" target-x="10" target-y="8.8"></path><path d="M 12.70 7.50 L 10.00 6.10 L 11.40 8.80 L 11.90 8.00 Z" fill="#ffc50b" fill-rule="nonzero" group-id="5" node-id="187" stroke="none" target-height="2.7000003" target-width="2.6999998" target-x="10" target-y="6.1"></path><path d="M 12.70 10.20 L 15.50 11.60 L 14.10 8.80 L 13.60 9.70 Z" fill="#ffc50b" fill-rule="nonzero" group-id="5" node-id="189" stroke="none" target-height="2.8000002" target-width="2.8000002" target-x="12.7" target-y="8.8"></path></g></svg>